<svg xmlns="http://www.w3.org/2000/svg" xmlns:xlink="http://www.w3.org/1999/xlink" style="isolation:isolate" viewBox="0 0 500 500" id="el_s13R3o3uI"><style>@-webkit-keyframes el_8VMfpFGLGBt_Animation{8.33%{opacity: 1;}12.50%{opacity: 0;}16.67%{opacity: 0;}25%{opacity: 1;}0%{opacity: 1;}100%{opacity: 1;}}@keyframes el_8VMfpFGLGBt_Animation{8.33%{opacity: 1;}12.50%{opacity: 0;}16.67%{opacity: 0;}25%{opacity: 1;}0%{opacity: 1;}100%{opacity: 1;}}@-webkit-keyframes el_Du4a6YjsDwu_YK56LDFz__Animation{0%{-webkit-transform: scale(1, 1);transform: scale(1, 1);}16.67%{-webkit-transform: scale(0.5, 1);transform: scale(0.5, 1);}25%{-webkit-transform: scale(1, 1);transform: scale(1, 1);}41.67%{-webkit-transform: scale(0.5, 1);transform: scale(0.5, 1);}50%{-webkit-transform: scale(1, 1);transform: scale(1, 1);}66.67%{-webkit-transform: scale(0.5, 1);transform: scale(0.5, 1);}75%{-webkit-transform: scale(1, 1);transform: scale(1, 1);}91.67%{-webkit-transform: scale(0.5, 1);transform: scale(0.5, 1);}100%{-webkit-transform: scale(1, 1);transform: scale(1, 1);}}@keyframes el_Du4a6YjsDwu_YK56LDFz__Animation{0%{-webkit-transform: scale(1, 1);transform: scale(1, 1);}16.67%{-webkit-transform: scale(0.5, 1);transform: scale(0.5, 1);}25%{-webkit-transform: scale(1, 1);transform: scale(1, 1);}41.67%{-webkit-transform: scale(0.5, 1);transform: scale(0.5, 1);}50%{-webkit-transform: scale(1, 1);transform: scale(1, 1);}66.67%{-webkit-transform: scale(0.5, 1);transform: scale(0.5, 1);}75%{-webkit-transform: scale(1, 1);transform: scale(1, 1);}91.67%{-webkit-transform: scale(0.5, 1);transform: scale(0.5, 1);}100%{-webkit-transform: scale(1, 1);transform: scale(1, 1);}}@-webkit-keyframes el_TTwYrISEAx_Animation{12.22%{opacity: 1;}12.50%{opacity: 0;}16.67%{opacity: 0;}25%{opacity: 1;}0%{opacity: 1;}100%{opacity: 1;}}@keyframes el_TTwYrISEAx_Animation{12.22%{opacity: 1;}12.50%{opacity: 0;}16.67%{opacity: 0;}25%{opacity: 1;}0%{opacity: 1;}100%{opacity: 1;}}@-webkit-keyframes el_TTwYrISEAx_J3vuKYSgy_Animation{8.33%{-webkit-transform: translate(0px, 0px);transform: translate(0px, 0px);}12.50%{-webkit-transform: translate(297px, 0px);transform: translate(297px, 0px);}12.78%{-webkit-transform: translate(500px, 0px);transform: translate(500px, 0px);}16.67%{-webkit-transform: translate(-47px, 0px);transform: translate(-47px, 0px);}25%{-webkit-transform: translate(0px, 0px);transform: translate(0px, 0px);}0%{-webkit-transform: translate(0px, 0px);transform: translate(0px, 0px);}100%{-webkit-transform: translate(0px, 0px);transform: translate(0px, 0px);}}@keyframes el_TTwYrISEAx_J3vuKYSgy_Animation{8.33%{-webkit-transform: translate(0px, 0px);transform: translate(0px, 0px);}12.50%{-webkit-transform: translate(297px, 0px);transform: translate(297px, 0px);}12.78%{-webkit-transform: translate(500px, 0px);transform: translate(500px, 0px);}16.67%{-webkit-transform: translate(-47px, 0px);transform: translate(-47px, 0px);}25%{-webkit-transform: translate(0px, 0px);transform: translate(0px, 0px);}0%{-webkit-transform: translate(0px, 0px);transform: translate(0px, 0px);}100%{-webkit-transform: translate(0px, 0px);transform: translate(0px, 0px);}}@-webkit-keyframes el_kpU0f4MCJ3_Animation{10.56%{opacity: 1;}10.83%{opacity: 0;}12.50%{opacity: 0;}25%{opacity: 1;}0%{opacity: 1;}100%{opacity: 1;}}@keyframes el_kpU0f4MCJ3_Animation{10.56%{opacity: 1;}10.83%{opacity: 0;}12.50%{opacity: 0;}25%{opacity: 1;}0%{opacity: 1;}100%{opacity: 1;}}@-webkit-keyframes el_kpU0f4MCJ3_21mE3ARoR_Animation{8.33%{-webkit-transform: scale(1, 1);transform: scale(1, 1);}10.83%{-webkit-transform: scale(0, 1);transform: scale(0, 1);}12.50%{-webkit-transform: scale(4.95, 1);transform: scale(4.95, 1);}25%{-webkit-transform: scale(1, 1);transform: scale(1, 1);}0%{-webkit-transform: scale(1, 1);transform: scale(1, 1);}100%{-webkit-transform: scale(1, 1);transform: scale(1, 1);}}@keyframes el_kpU0f4MCJ3_21mE3ARoR_Animation{8.33%{-webkit-transform: scale(1, 1);transform: scale(1, 1);}10.83%{-webkit-transform: scale(0, 1);transform: scale(0, 1);}12.50%{-webkit-transform: scale(4.95, 1);transform: scale(4.95, 1);}25%{-webkit-transform: scale(1, 1);transform: scale(1, 1);}0%{-webkit-transform: scale(1, 1);transform: scale(1, 1);}100%{-webkit-transform: scale(1, 1);transform: scale(1, 1);}}@-webkit-keyframes el_kpU0f4MCJ3_h5rGvvI___Animation{8.33%{-webkit-transform: translate(0px, 0px);transform: translate(0px, 0px);}10.83%{-webkit-transform: translate(68px, 0px);transform: translate(68px, 0px);}12.50%{-webkit-transform: translate(-138px, 0px);transform: translate(-138px, 0px);}25%{-webkit-transform: translate(0px, 0px);transform: translate(0px, 0px);}0%{-webkit-transform: translate(0px, 0px);transform: translate(0px, 0px);}100%{-webkit-transform: translate(0px, 0px);transform: translate(0px, 0px);}}@keyframes el_kpU0f4MCJ3_h5rGvvI___Animation{8.33%{-webkit-transform: translate(0px, 0px);transform: translate(0px, 0px);}10.83%{-webkit-transform: translate(68px, 0px);transform: translate(68px, 0px);}12.50%{-webkit-transform: translate(-138px, 0px);transform: translate(-138px, 0px);}25%{-webkit-transform: translate(0px, 0px);transform: translate(0px, 0px);}0%{-webkit-transform: translate(0px, 0px);transform: translate(0px, 0px);}100%{-webkit-transform: translate(0px, 0px);transform: translate(0px, 0px);}}#el_s13R3o3uI *{-webkit-animation-duration: 12s;animation-duration: 12s;-webkit-animation-iteration-count: infinite;animation-iteration-count: infinite;-webkit-animation-timing-function: cubic-bezier(0, 0, 1, 1);animation-timing-function: cubic-bezier(0, 0, 1, 1);}#el_jDS-OmuEam{fill: rgb(10,45,57);}#el_BmikX4B1Pb{fill: rgb(5,24,30);}#el_3H3a7eGPlm{fill: rgb(207,207,195);}#el_hecPz0M32x{fill: rgb(14,178,153);}#el_Q69l2QwE0m{opacity: 0.28;}#el_6RAigT0sI3{-webkit-transform: matrix(1,0,0,1,0,0);transform: matrix(1,0,0,1,0,0);fill: rgb(0,0,0);}#el_1zGDFOfflX{opacity: 0.28;}#el_m-V3sbXMbj{-webkit-transform: matrix(1,0,0,1,0,0);transform: matrix(1,0,0,1,0,0);fill: rgb(0,0,0);}#el_KdrMsP8bUZ{opacity: 0.175;}#el_T-2aoGzHL6{-webkit-transform: matrix(1,0,0,1,0,0);transform: matrix(1,0,0,1,0,0);fill: rgb(235,235,235);}#el_sPYrFrCPXc{opacity: 0.175;}#el_jZb60YPlIL{-webkit-transform: matrix(1,0,0,1,0,0);transform: matrix(1,0,0,1,0,0);fill: rgb(235,235,235);}#el_WaUgNRgRtk{opacity: 0.175;}#el_lIf4602UIyN{-webkit-transform: matrix(1,0,0,1,0,0);transform: matrix(1,0,0,1,0,0);fill: rgb(235,235,235);}#el_Oc0PwWcwe2E{opacity: 0.175;}#el_HijNrvIFzgh{-webkit-transform: matrix(1,0,0,1,0,0);transform: matrix(1,0,0,1,0,0);fill: rgb(235,235,235);}#el_DyCz9ZFEHeX{fill: rgb(19,213,183);}#el_DwtpVtUkewh{fill: rgb(14,178,153);}#el_N5akhMO52J9{fill: rgb(19,213,183);}#el_Iqtq0bPRXDn{fill: rgb(19,213,183);}#el_daa6RkxFvF1{fill: rgb(19,213,183);}#el_RMOHPDxS0UC{fill: rgb(19,213,183);}#el_HnMdfB-EvCU{fill: rgb(19,213,183);}#el_H8XQQ3uIQZH{fill: rgb(19,213,183);}#el_Du4a6YjsDwu{fill: rgb(14,178,153);}#el_FDTxGtOcJ-y{opacity: 0.2;}#el_V8ZvwV81o_n{fill: rgb(255,255,255);}#el_9RnmIwl0ZTI{opacity: 0.2;}#el_Biw_ifTww5E{fill: rgb(102,102,102);}#el_koK5XjaE--V{fill: rgb(5,24,30);}#el_BnjdqEDrgaz{fill: rgb(5,24,30);}#el_vyHJlmIP-hb{opacity: 0.2;}#el_iW_BJTcCnCe{fill: rgb(102,102,102);}#el_9OmntSNtRR5{opacity: 0.2;}#el_GJFVRqPulSS{fill: rgb(255,255,255);}#el_UMljpTFIPQs{fill: rgb(185,185,176);}#el_3cl5XdovqpB{opacity: 0.2;}#el_Hcm1wVm47-Z{fill: rgb(255,255,255);}#el_ou8Cm764NNM{opacity: 0.2;}#el_E-wF6TNkMfg{fill: rgb(255,255,255);}#el_Eni4xaUQaXt{fill: rgb(5,24,30);}#el_kpU0f4MCJ3_h5rGvvI__{-webkit-animation-name: el_kpU0f4MCJ3_h5rGvvI___Animation;animation-name: el_kpU0f4MCJ3_h5rGvvI___Animation;-webkit-transform-origin: 50% 50%;transform-origin: 50% 50%;transform-box: fill-box;}#el_kpU0f4MCJ3_21mE3ARoR{-webkit-animation-name: el_kpU0f4MCJ3_21mE3ARoR_Animation;animation-name: el_kpU0f4MCJ3_21mE3ARoR_Animation;-webkit-transform-origin: 50% 50%;transform-origin: 50% 50%;transform-box: fill-box;}#el_kpU0f4MCJ3{-webkit-animation-name: el_kpU0f4MCJ3_Animation;animation-name: el_kpU0f4MCJ3_Animation;}#el_TTwYrISEAx_J3vuKYSgy{-webkit-animation-name: el_TTwYrISEAx_J3vuKYSgy_Animation;animation-name: el_TTwYrISEAx_J3vuKYSgy_Animation;-webkit-animation-timing-function: cubic-bezier(0.42, 0, 1, 1);animation-timing-function: cubic-bezier(0.42, 0, 1, 1);-webkit-transform-origin: 50% 50%;transform-origin: 50% 50%;transform-box: fill-box;}#el_TTwYrISEAx{-webkit-animation-name: el_TTwYrISEAx_Animation;animation-name: el_TTwYrISEAx_Animation;}#el_Du4a6YjsDwu_YK56LDFz_{-webkit-animation-name: el_Du4a6YjsDwu_YK56LDFz__Animation;animation-name: el_Du4a6YjsDwu_YK56LDFz__Animation;-webkit-animation-timing-function: cubic-bezier(0.42, 0, 1, 1);animation-timing-function: cubic-bezier(0.42, 0, 1, 1);-webkit-transform-origin: 50% 50%;transform-origin: 50% 50%;transform-box: fill-box;}#el_8VMfpFGLGBt{-webkit-animation-name: el_8VMfpFGLGBt_Animation;animation-name: el_8VMfpFGLGBt_Animation;-webkit-animation-timing-function: cubic-bezier(0.42, 0, 1, 1);animation-timing-function: cubic-bezier(0.42, 0, 1, 1);}</style><path d=" M 43.5 11 L 456.5 11 L 456.5 51 L 420 51 L 420 91.242 L 102.5 90.759 L 240.198 250 L 102.5 409.241 L 420 409.241 L 420 449 L 456.5 449.241 L 456.5 489 L 43.5 489 L 43.5 449.241 L 61 449 L 61 408.758 L 198.698 249.759 L 61 91.242 L 61 51 L 43.5 51 L 43.5 11 Z " id="el_jDS-OmuEam"/><path d=" M 228.698 250 L 240.198 250 L 102.5 409 L 91 409 L 228.698 250 Z " id="el_BmikX4B1Pb"/><path d=" M 247.125 255.851 L 113.5 409.241 L 390.5 408.758 L 256.875 255.341 L 256.875 244.149 L 390.5 90.759 L 113.5 91.242 L 247.125 244.659 L 247.125 255.851 Z " id="el_3H3a7eGPlm"/><path d=" M 304.297 189.91 L 251.766 250 L 199.88 190.219 C 213.874 177.945 232.207 170.5 252.266 170.5 C 272.155 170.5 290.349 177.82 304.297 189.91 Z " id="el_hecPz0M32x"/><g id="el_kpU0f4MCJ3_h5rGvvI__" data-animator-group="true" data-animator-type="0"><g id="el_kpU0f4MCJ3_21mE3ARoR" data-animator-group="true" data-animator-type="2"><g id="el_kpU0f4MCJ3"><g id="el_Q69l2QwE0m"><rect x="347.344" y="449" width="83.156" height="40" id="el_6RAigT0sI3"/></g><g id="el_1zGDFOfflX"><rect x="347.344" y="11" width="83.156" height="40" id="el_m-V3sbXMbj"/></g></g></g></g><g id="el_TTwYrISEAx_J3vuKYSgy" data-animator-group="true" data-animator-type="0"><g id="el_TTwYrISEAx"><g id="el_KdrMsP8bUZ"><rect x="93.5" y="449" width="36.472" height="40" id="el_T-2aoGzHL6"/></g><g id="el_sPYrFrCPXc"><rect x="93.5" y="11" width="36.472" height="40" id="el_jZb60YPlIL"/></g><g id="el_WaUgNRgRtk"><rect x="146.019" y="449" width="13.275" height="40" id="el_lIf4602UIyN"/></g><g id="el_Oc0PwWcwe2E"><rect x="146.019" y="11" width="13.275" height="40" id="el_HijNrvIFzgh"/></g></g></g><path d=" M 222.125 206.812 C 222.125 201.328 226.494 196.875 231.875 196.875 C 237.256 196.875 241.625 201.328 241.625 206.812 C 241.625 212.297 237.256 216.75 231.875 216.75 C 226.494 216.75 222.125 212.297 222.125 206.812 Z " id="el_DyCz9ZFEHeX"/><path d=" M 113.677 409 Q 134.821 386.059 181.5 370 Q 235.744 354.79 251.5 330 Q 268.376 355.231 320.5 370 Q 367.448 384.175 390.5 409 L 113.677 409 Z " id="el_DwtpVtUkewh"/><path d=" M 174 396 C 174 390.515 178.369 386.063 183.75 386.063 C 189.131 386.063 193.5 390.515 193.5 396 C 193.5 401.485 189.131 405.938 183.75 405.938 C 178.369 405.938 174 401.485 174 396 Z " id="el_N5akhMO52J9"/><path d=" M 213 391.031 C 213 388.289 215.184 386.063 217.875 386.063 C 220.566 386.063 222.75 388.289 222.75 391.031 C 222.75 393.774 220.566 396 217.875 396 C 215.184 396 213 393.774 213 391.031 Z " id="el_Iqtq0bPRXDn"/><path d=" M 215 189.969 C 215 187.226 217.184 185 219.875 185 C 222.566 185 224.75 187.226 224.75 189.969 C 224.75 192.711 222.566 194.938 219.875 194.938 C 217.184 194.938 215 192.711 215 189.969 Z " id="el_daa6RkxFvF1"/><path d=" M 265.961 370.031 C 265.961 364.547 270.33 360.094 275.711 360.094 C 281.092 360.094 285.461 364.547 285.461 370.031 C 285.461 375.516 281.092 379.969 275.711 379.969 C 270.33 379.969 265.961 375.516 265.961 370.031 Z " id="el_RMOHPDxS0UC"/><path d=" M 305.875 391.906 C 305.875 383.679 312.428 377 320.5 377 C 328.572 377 335.125 383.679 335.125 391.906 C 335.125 400.133 328.572 406.813 320.5 406.813 C 312.428 406.813 305.875 400.133 305.875 391.906 Z " id="el_HnMdfB-EvCU"/><path d=" M 249.5 191.906 C 249.5 183.679 256.053 177 264.125 177 C 272.197 177 278.75 183.679 278.75 191.906 C 278.75 200.133 272.197 206.812 264.125 206.812 C 256.053 206.812 249.5 200.133 249.5 191.906 Z " id="el_H8XQQ3uIQZH"/><g id="el_Du4a6YjsDwu_YK56LDFz_" data-animator-group="true" data-animator-type="2"><path d=" M 247.75 244 L 252.625 238 L 257.5 244 L 257.5 343.125 L 247.75 343.125 L 247.75 244 Z " id="el_Du4a6YjsDwu"/></g><g id="el_8VMfpFGLGBt"><g id="el_FDTxGtOcJ-y"><path d=" M 151.5 396 L 240.5 294 L 172.5 396 L 151.5 396 Z " id="el_V8ZvwV81o_n"/></g><g id="el_9RnmIwl0ZTI"><path d=" M 377.5 409.242 L 252.625 261 L 321.125 409 L 377.5 409.242 Z " id="el_Biw_ifTww5E"/></g><path d=" M 420 449 L 172.5 449 L 420 437 L 420 449 Z " id="el_koK5XjaE--V"/><path d=" M 420 51 L 172.5 51 L 420 63 L 420 51 Z " id="el_BnjdqEDrgaz"/><g id="el_vyHJlmIP-hb"><path d=" M 377.5 91 L 252.625 239.242 L 321.125 91.242 L 377.5 91 Z " id="el_iW_BJTcCnCe"/></g><g id="el_9OmntSNtRR5"><path d=" M 151.5 119.5 L 240.5 221.5 L 172.5 119.5 L 151.5 119.5 Z " id="el_GJFVRqPulSS"/></g><path d=" M 390.5 91 L 141.422 90.759 L 371.5 113 L 390.5 91 Z " id="el_UMljpTFIPQs"/><g id="el_3cl5XdovqpB"><path d=" M 180.5 119.5 L 249.5 221.5 L 193.5 119.5 L 180.5 119.5 Z " id="el_Hcm1wVm47-Z"/></g><g id="el_ou8Cm764NNM"><path d=" M 180.5 396 L 249.5 294 L 193.5 396 L 180.5 396 Z " id="el_E-wF6TNkMfg"/></g></g><path d=" M 228.698 249.759 L 240.198 249.759 L 102.5 90.759 L 91 90.759 L 228.698 249.759 Z " id="el_Eni4xaUQaXt"/><script>(function(){var a=document.querySelector('#el_s13R3o3uI'),b=a.querySelectorAll('style'),c=function(d){b.forEach(function(f){var g=f.textContent;g&amp;&amp;(f.textContent=g.replace(/transform-box:[^;\r\n]*/gi,'transform-box: '+d))})};c('initial'),window.requestAnimationFrame(function(){return c('fill-box')})})();</script></svg>